<svg xmlns="http://www.w3.org/2000/svg" xmlns:xlink="http://www.w3.org/1999/xlink" version="1.1" id="Слой_1" x="0px" y="0px" viewBox="0 0 100 100" style="fill: rgb(156, 39, 176); width: 100%; height: 100%;" xml:space="preserve" width="1px" height="1px">
<g>
	<g>
		<path d="M98.2,35.4c-1.7-1-3.9-0.4-4.8,1.3L67.9,81.1L51.4,64.7c-1.4-1.4-3.6-1.4-5,0c-1.4,1.4-1.4,3.6,0,5l19.8,19.7    c0.1,0.1,0.2,0.1,0.4,0.2c0.1,0.1,0.2,0.2,0.4,0.3c0.1,0,0.2,0,0.2,0.1c0.2,0.1,0.4,0.2,0.7,0.2c0.2,0.1,0.4,0.1,0.6,0.1    c0.2,0,0.5,0,0.7,0c0.2,0,0.4-0.1,0.6-0.1c0.2-0.1,0.4-0.2,0.6-0.3c0.2-0.1,0.4-0.2,0.5-0.4c0.1-0.1,0.2-0.1,0.2-0.2    c0.1-0.1,0.2-0.3,0.3-0.4c0.1-0.1,0.2-0.2,0.3-0.3l27.8-48.4C100.5,38.6,99.9,36.4,98.2,35.4z"/>
	</g>
	<path d="M70,9.7H3.2C1.4,9.7,0,11.1,0,12.9v66.8c0,1.7,1.4,3.2,3.2,3.2h42.4l0,0c0,0,0,0,0.1,0c0.9,0,1.6-0.7,1.6-1.6   c0-0.5-0.2-0.8-0.5-1.1l0,0l-3.4-3.4H9.3c-1.7,0-3.2-1.4-3.2-3.2V18.7c0-1.7,1.4-3.2,3.2-3.2h54.5c1.7,0,3.2,1.4,3.2,3.2v43.9l0,0   c0,0.1,0.1,0.8,0.6,1.2c0.3,0.2,0.5,0.3,0.6,0.3c0.4,0.1,0.7,0,0.8,0c0.4-0.1,0.6-0.3,0.7-0.4c0.1-0.1,0.2-0.3,0.3-0.4   c1.1-1.8,2.1-3.7,3.2-5.5V12.9C73.1,11.1,71.7,9.7,70,9.7z"/>
</g>
</svg>