<svg xmlns="http://www.w3.org/2000/svg" width="1px" height="1px" viewBox="0 0 4 16" fill="none" style="fill: white; width: 100%; height: 100%;">
<path d="M0.373962 8.07895C0.373962 8.48738 0.536206 8.8791 0.825012 9.16791C1.11382 9.45671 1.50554 9.61896 1.91397 9.61896C2.3224 9.61896 2.71409 9.45671 3.0029 9.16791C3.29171 8.8791 3.45398 8.48738 3.45398 8.07895C3.45398 7.67052 3.29171 7.27883 3.0029 6.99002C2.71409 6.70121 2.3224 6.53894 1.91397 6.53894C1.50554 6.53894 1.11382 6.70121 0.825012 6.99002C0.536206 7.27883 0.373962 7.67052 0.373962 8.07895Z"/>
<path d="M0.373962 1.91995C0.373962 2.32839 0.536206 2.72007 0.825012 3.00888C1.11382 3.29769 1.50554 3.45996 1.91397 3.45996C2.3224 3.45996 2.71409 3.29769 3.0029 3.00888C3.29171 2.72007 3.45398 2.32839 3.45398 1.91995C3.45398 1.51152 3.29171 1.1198 3.0029 0.830994C2.71409 0.542188 2.3224 0.379944 1.91397 0.379944C1.50554 0.379944 1.11382 0.542188 0.825012 0.830994C0.536206 1.1198 0.373962 1.51152 0.373962 1.91995Z"/>
<path d="M0.373926 14.2369C0.368622 14.4424 0.404505 14.6469 0.479456 14.8383C0.554406 15.0296 0.666901 15.2041 0.810327 15.3513C0.953753 15.4985 1.12521 15.6156 1.31457 15.6955C1.50393 15.7754 1.70739 15.8166 1.91293 15.8167C2.11847 15.8167 2.32193 15.7757 2.51135 15.6959C2.70076 15.6161 2.87228 15.4992 3.0158 15.352C3.15932 15.2049 3.27193 15.0305 3.34701 14.8392C3.42208 14.6479 3.45811 14.4434 3.45294 14.2379C3.4427 13.8364 3.27602 13.4548 2.98843 13.1745C2.70083 12.8941 2.31508 12.7372 1.91345 12.7372C1.51181 12.7372 1.12606 12.8941 0.838464 13.1745C0.550868 13.4548 0.38416 13.8364 0.373926 14.2379V14.2369Z"/>
</svg>