<svg xmlns="http://www.w3.org/2000/svg" xmlns:xlink="http://www.w3.org/1999/xlink" version="1.1" id="Слой_1" x="0px" y="0px" viewBox="0 0 100 100" style="fill: rgb(33, 150, 243); width: 100%; height: 100%;" xml:space="preserve" width="1px" height="1px">
<g>
	<path d="M98.2,37.1c-1.7-1-3.9-0.4-4.8,1.3L67.8,82.9L51.3,66.4c-1.4-1.4-3.6-1.4-5,0c-1.4,1.4-1.4,3.6,0,5L66,91.2   c0.1,0.1,0.2,0.1,0.4,0.2c0.1,0.1,0.2,0.2,0.4,0.3c0.1,0,0.2,0,0.2,0.1c0.2,0.1,0.4,0.2,0.7,0.2c0.2,0.1,0.4,0.1,0.6,0.1   c0.2,0,0.5,0,0.7,0c0.2,0,0.4-0.1,0.6-0.1c0.2-0.1,0.4-0.2,0.6-0.3c0.2-0.1,0.4-0.2,0.5-0.4c0.1-0.1,0.2-0.1,0.2-0.2   c0.1-0.1,0.2-0.3,0.3-0.4c0.1-0.1,0.2-0.2,0.3-0.3L99.5,42C100.5,40.3,99.9,38.1,98.2,37.1z"/>
	<path d="M38.9,74c-0.8,0.1-1.5,0.1-2.3,0.1c-16.8,0-30.4-13.7-30.4-30.6c0-16.9,13.6-30.6,30.4-30.6C53.4,12.8,67,26.5,67,43.5   c0,8-3,15.3-8,20.7l4.3,4.3c6.1-6.5,9.8-15.3,9.8-25c0-20.2-16.4-36.6-36.6-36.6C16.4,6.8,0,23.2,0,43.5   c0,20.2,16.4,36.6,36.6,36.6c2.6,0,5.1-0.3,7.6-0.8l-5-5C39.1,74.2,39,74.1,38.9,74z"/>
</g>
</svg>